<svg id="Layer_1" enable-background="new 0 0 480 480" height="512" viewBox="0 0 480 480" width="512" xmlns="http://www.w3.org/2000/svg"><path d="m398 122v184.5c0 4.418-3.582 8-8 8s-8-3.582-8-8v-184.5c0-13.234-10.767-24-24-24h-236c-13.233 0-24 10.766-24 24v236c0 13.234 10.767 24 24 24h236c13.233 0 24-10.766 24-24 0-4.418 3.582-8 8-8s8 3.582 8 8c0 22.056-17.944 40-40 40h-236c-22.056 0-40-17.944-40-40v-236c0-22.056 17.944-40 40-40h236c22.056 0 40 17.944 40 40zm-158-64c4.418 0 8-3.582 8-8v-42c0-4.418-3.582-8-8-8s-8 3.582-8 8v42c0 4.418 3.582 8 8 8zm-80 0c4.418 0 8-3.582 8-8v-42c0-4.418-3.582-8-8-8s-8 3.582-8 8v42c0 4.418 3.582 8 8 8zm160 0c4.418 0 8-3.582 8-8v-42c0-4.418-3.582-8-8-8s-8 3.582-8 8v42c0 4.418 3.582 8 8 8zm-80 364c-4.418 0-8 3.582-8 8v42c0 4.418 3.582 8 8 8s8-3.582 8-8v-42c0-4.418-3.582-8-8-8zm80 0c-4.418 0-8 3.582-8 8v42c0 4.418 3.582 8 8 8s8-3.582 8-8v-42c0-4.418-3.582-8-8-8zm-160 0c-4.418 0-8 3.582-8 8v42c0 4.418 3.582 8 8 8s8-3.582 8-8v-42c0-4.418-3.582-8-8-8zm312-190h-42c-4.418 0-8 3.582-8 8s3.582 8 8 8h42c4.418 0 8-3.582 8-8s-3.582-8-8-8zm-42-64h42c4.418 0 8-3.582 8-8s-3.582-8-8-8h-42c-4.418 0-8 3.582-8 8s3.582 8 8 8zm42 144h-42c-4.418 0-8 3.582-8 8s3.582 8 8 8h42c4.418 0 8-3.582 8-8s-3.582-8-8-8zm-422-80h-42c-4.418 0-8 3.582-8 8s3.582 8 8 8h42c4.418 0 8-3.582 8-8s-3.582-8-8-8zm0 80h-42c-4.418 0-8 3.582-8 8s3.582 8 8 8h42c4.418 0 8-3.582 8-8s-3.582-8-8-8zm0-160h-42c-4.418 0-8 3.582-8 8s3.582 8 8 8h42c4.418 0 8-3.582 8-8s-3.582-8-8-8zm200.606 116.894c5.862 5.862 5.863 15.35-.001 21.213-5.861 5.862-15.349 5.863-21.212-.001-5.862-5.86-5.864-15.351.001-21.213 5.862-5.862 15.35-5.862 21.212.001zm26.164-14.85c3.124-3.124 3.124-8.189 0-11.313-20.321-20.322-53.215-20.325-73.539 0-3.124 3.124-3.124 8.189 0 11.313 3.125 3.125 8.189 3.124 11.314 0 14.068-14.069 36.841-14.07 50.91 0 3.124 3.124 8.189 3.124 11.315 0zm29.699-29.698c3.124-3.124 3.124-8.189 0-11.313-36.738-36.737-96.196-36.74-132.938 0-3.124 3.124-3.124 8.189 0 11.313 3.125 3.124 8.189 3.124 11.314 0 30.481-30.483 79.824-30.487 110.309 0 3.125 3.124 8.189 3.124 11.315 0z"/></svg>